<?xml version="1.0" encoding="UTF-8" standalone="no"?>
<!-- Created with Inkscape (http://www.inkscape.org/) -->

<svg
   xmlns:dc="http://purl.org/dc/elements/1.1/"
   xmlns:cc="http://creativecommons.org/ns#"
   xmlns:rdf="http://www.w3.org/1999/02/22-rdf-syntax-ns#"
   xmlns:svg="http://www.w3.org/2000/svg"
   xmlns="http://www.w3.org/2000/svg"
   xmlns:sodipodi="http://sodipodi.sourceforge.net/DTD/sodipodi-0.dtd"
   xmlns:inkscape="http://www.inkscape.org/namespaces/inkscape"
   width="66.68399mm"
   height="120.20773mm"
   viewBox="0 0 66.68399 120.20773"
   version="1.1"
   id="svg3999"
   inkscape:version="0.92.1 r15371"
   sodipodi:docname="logo_single.svg">
  <defs
     id="defs3993">
    <filter
       inkscape:collect="always"
       style="color-interpolation-filters:sRGB"
       id="filter4985"
       x="-0.080939174"
       width="1.1618783"
       y="-0.041881435"
       height="1.0837629">
      <feGaussianBlur
         inkscape:collect="always"
         stdDeviation="25.372863"
         id="feGaussianBlur4987" />
    </filter>
  </defs>
  <sodipodi:namedview
     id="base"
     pagecolor="#ffffff"
     bordercolor="#666666"
     borderopacity="1.0"
     inkscape:pageopacity="0.0"
     inkscape:pageshadow="2"
     inkscape:zoom="0.7"
     inkscape:cx="-23.558452"
     inkscape:cy="183.49311"
     inkscape:document-units="mm"
     inkscape:current-layer="layer1"
     showgrid="false"
     fit-margin-top="0"
     fit-margin-left="0"
     fit-margin-right="0"
     fit-margin-bottom="0"
     inkscape:window-width="1920"
     inkscape:window-height="1138"
     inkscape:window-x="-8"
     inkscape:window-y="-8"
     inkscape:window-maximized="1" />
  <metadata
     id="metadata3996">
    <rdf:RDF>
      <cc:Work
         rdf:about="">
        <dc:format>image/svg+xml</dc:format>
        <dc:type
           rdf:resource="http://purl.org/dc/dcmitype/StillImage" />
        <dc:title></dc:title>
      </cc:Work>
    </rdf:RDF>
  </metadata>
  <g
     inkscape:label="Layer 1"
     inkscape:groupmode="layer"
     id="layer1"
     transform="translate(-70.601454,-92.887202)">
    <path
       inkscape:export-ydpi="149"
       inkscape:export-xdpi="149"
       inkscape:export-filename="d:\PULPIT\logo_fin.png"
       style="fill:#f9f9f9;fill-opacity:1;fill-rule:nonzero;stroke:none;stroke-width:0.0764051;stroke-linecap:butt;stroke-linejoin:miter;stroke-miterlimit:4;stroke-dasharray:none;stroke-opacity:1"
       d="m 132.64008,97.532639 c -6.30958,1.13434 -11.00097,2.675741 -14.62556,4.449711 -1.90553,0.9326 -3.87085,2.10204 -5.75802,3.59762 -0.96974,-0.33351 -1.88669,-0.63498 -1.87137,-0.62996 -0.11728,-0.0385 -3.68737,-1.29303 -7.9089,-1.73624 -1.35667,-0.1102 -2.665816,-0.12352 -3.930767,-0.0524 -3.948281,0.2219 -7.426821,1.26208 -10.614188,2.71513 -0.0397,0.0182 -0.07934,0.036 -0.119046,0.0541 -1.42197,-1.1766 -2.785652,-2.07988 -4.371487,-2.95008 -1.503629,-0.82509 -4.13956,-2.12661 -8.193929,-3.667951 3.631866,2.203331 6.001627,4.138571 7.203265,5.132281 1.055628,0.87292 2.899176,2.45026 3.921379,3.3662 1.517888,1.3601 4.311459,3.92061 6.813199,7.89578 0.105762,0.16807 0.211647,0.33965 0.317805,0.51495 1.869857,3.08726 3.550975,6.17455 4.934386,9.64318 0.997657,2.50143 1.831163,5.15086 2.888553,7.87627 a 0.64648316,0.64648316 0 0 0 0.0118,0.0263 0.63494311,0.63494311 0 0 0 1.23873,-0.20295 c -0.0422,-3.68526 0.20069,-7.11644 0.96548,-10.2572 0.19032,-0.78155 0.41153,-1.54316 0.66109,-2.2848 1.2534,-3.72488 3.20101,-6.899 5.58251,-9.74511 0.17701,-0.21155 0.35664,-0.42167 0.53907,-0.63057 2.62163,-3.00181 5.69365,-5.3296 8.55225,-7.10149 3.23511,-2.00524 7.65082,-4.206201 13.76378,-6.012811 z M 99.524207,104.8028 c 0.912743,-0.004 1.850203,0.0321 2.815243,0.10908 3.97982,0.21836 7.60315,1.24848 7.68064,1.26898 0.2764,0.0731 0.63078,0.16852 1.12864,0.32436 -0.89296,0.78533 -1.76155,1.65036 -2.58997,2.60576 -0.19729,0.22751 -0.38949,0.45828 -0.57676,0.69223 -2.54625,3.18105 -4.12052,6.8623 -5.13433,10.81981 -0.2025,0.79045 -0.38335,1.59403 -0.54622,2.41041 -0.45636,2.28752 -0.7819,4.69243 -0.92182,7.22173 -0.6105,-1.63314 -1.18732,-3.23699 -1.729375,-4.83709 -1.190819,-3.5152 -2.208246,-7.07909 -4.164384,-10.38353 -0.110984,-0.1875 -0.22186,-0.37124 -0.332556,-0.55145 -1.382822,-2.25084 -2.771399,-3.99045 -3.975311,-5.32041 -0.811237,-0.89619 -1.590664,-1.66183 -2.300915,-2.30718 2.987497,-1.2014 6.196486,-1.92042 9.742573,-2.0363 0.298848,-0.01 0.600297,-0.0153 0.904545,-0.0164 z m -17.755031,12.20784 c 1.393217,2.01548 2.440343,3.55024 4.296099,4.54374 0.679795,0.36392 1.562051,0.69926 2.669525,0.84434 0.213005,0.028 0.429722,0.043 0.649465,0.0465 1.252249,0.0199 2.552422,-0.33295 3.980229,-0.81932 -1.523121,0.11674 -2.770695,-0.13686 -3.82617,-0.40541 -0.18688,-0.0475 -0.370619,-0.0962 -0.549341,-0.14364 -0.903705,-0.23957 -1.665172,-0.57835 -2.234912,-0.85894 -0.780716,-0.38451 -1.638938,-0.88255 -2.343079,-1.32784 -0.807181,-0.51043 -1.577853,-1.05078 -2.641816,-1.87941 z m 41.850354,0.89993 c -1.20889,0.94693 -2.55894,1.46037 -3.79115,1.95793 -1.37388,0.55474 -2.71719,0.83936 -3.68105,1.0063 -1.14694,0.19866 -2.38013,0.3327 -3.40482,0.39736 -1.08416,0.0685 -2.33351,0.0869 -3.66629,-0.0475 1.247,0.46625 2.51461,0.77274 3.63218,0.92601 1.1203,0.15365 2.3325,0.19035 3.64081,0.003 1.08053,-0.15563 2.47957,-0.50312 3.95058,-1.26051 1.32594,-0.68267 2.37985,-1.77344 3.31974,-2.98167 z m -39.400145,9.76938 a 2.1027218,2.1027218 0 0 0 -1.964785,1.45061 c -0.03254,0.10019 -0.447423,1.61941 -0.645445,2.63257 -0.193593,0.9905 -0.305923,1.80285 -0.374273,2.44546 -0.06104,0.57387 -0.141262,1.53415 -0.182218,2.84668 -0.03004,0.96271 -0.125705,4.20052 0.442215,8.16978 0.42632,2.9796 1.522034,8.71388 5.07027,15.09101 1.070008,1.92311 2.430302,4.02976 4.175111,6.22454 2.547987,3.20509 5.73525,6.34803 9.68998,9.32941 0.40222,0.30322 0.80812,0.60147 1.21758,0.89486 0.20989,-0.42815 0.42191,-0.85524 0.6362,-1.28121 1.43987,-2.86202 3.34836,-6.44966 4.78823,-9.31168 0.90416,-1.79194 1.81741,-3.65049 2.6807,-5.51025 0.82258,-1.77208 1.61378,-3.55169 2.30151,-5.2887 0.70427,-1.77877 1.31054,-3.53891 1.73116,-5.22283 0.41935,-1.67883 0.66821,-3.3361 0.62145,-4.89505 -0.0469,-1.56218 -0.39364,-3.09258 -1.22428,-4.42884 -0.56409,-0.90747 -1.32771,-1.68467 -2.29123,-2.28944 -0.45636,-0.28648 -0.94885,-0.53273 -1.47578,-0.73961 -3.10413,-1.21841 -6.21527,-1.07483 -8.91849,-0.087 -2.685039,0.98115 -4.971893,2.79219 -6.544419,4.94376 -1.570033,2.14818 -2.489404,4.7241 -2.292872,7.25707 0.09874,1.27256 0.479147,2.51525 1.181375,3.65481 0.701541,1.13844 1.703028,2.14001 3.004169,2.96602 1.276862,0.81 2.502924,1.27319 3.666892,1.41128 1.172665,0.13911 2.237175,-0.0576 3.169255,-0.50226 0.92314,-0.44041 1.6851,-1.10819 2.30032,-1.87657 0.56597,-0.70691 1.02086,-1.51492 1.37462,-2.35247 0.031,-0.0735 0.0613,-0.14702 0.0906,-0.22054 0.80661,-2.02295 0.99739,-4.07181 0.85448,-5.52648 -0.0877,-0.8925 -0.30341,-1.65252 -0.63591,-2.23596 -0.18744,-0.32889 -0.41643,-0.60963 -0.68865,-0.82733 -0.29986,-0.23986 -0.63678,-0.39079 -0.99498,-0.45309 -0.006,0 -0.0128,-0.003 -0.0192,-0.003 -1.31167,-0.18732 -2.46101,0.0461 -3.11994,0.23227 -0.83563,0.23613 -1.43433,0.54977 -1.74621,0.7326 -0.339565,0.19908 -0.591348,0.38987 -0.789517,0.57764 -0.204549,0.19388 -0.520587,0.54637 -0.734838,1.04284 -0.122032,0.28275 -0.241561,0.68646 -0.199801,1.1465 0.02943,0.32427 0.140127,0.68696 0.405712,1.05235 0.206236,0.28374 0.514072,0.58073 0.979187,0.87384 -0.393016,-0.38783 -0.593051,-0.74127 -0.690289,-1.02761 -0.12326,-0.36296 -0.09495,-0.65517 -0.03799,-0.86208 0.08171,-0.29683 0.253243,-0.52647 0.389321,-0.67867 0.231964,-0.25941 0.537448,-0.47888 0.694315,-0.59135 0.14853,-0.10651 0.3783,-0.26782 0.63233,-0.41212 0.24971,-0.14187 0.73631,-0.39239 1.43958,-0.5638 0.56629,-0.13804 1.50571,-0.27805 2.53141,-0.0645 l -0.0162,-0.003 c 0.10592,0.0274 0.2039,0.0811 0.29903,0.17105 0.09,0.0851 0.18849,0.21365 0.28205,0.40527 0.16994,0.34805 0.31051,0.88058 0.34715,1.61659 0.0597,1.19924 -0.1731,2.95684 -0.93985,4.655 -0.0273,0.0605 -0.0554,0.12093 -0.084,0.18103 -0.32906,0.6907 -0.72808,1.31152 -1.1851,1.81937 -0.49728,0.55257 -1.04594,0.95261 -1.63044,1.18182 -0.57509,0.22554 -1.21352,0.29787 -1.936031,0.16329 -0.730762,-0.13613 -1.593159,-0.49306 -2.5919,-1.19374 -0.975457,-0.68511 -1.630629,-1.4461 -2.046135,-2.21984 -0.414672,-0.77222 -0.609298,-1.59099 -0.623243,-2.42533 -0.02808,-1.6802 0.68055,-3.50527 1.970894,-5.11543 1.28834,-1.60764 3.092039,-2.91692 5.110495,-3.59286 1.99878,-0.66933 4.20111,-0.71938 6.3993,0.15484 0.32989,0.13127 0.61837,0.27854 0.87102,0.43744 0.5201,0.32707 0.92899,0.7118 1.25363,1.15484 0.48737,0.6651 0.84582,1.54825 1.01912,2.71752 0.17352,1.17069 0.14944,2.55458 -0.0706,4.11731 -0.21909,1.55583 -0.62567,3.24159 -1.18376,4.99694 -0.5435,1.70949 -1.22557,3.46912 -2.00486,5.21942 -0.8169,1.83476 -1.72707,3.65589 -2.65984,5.40669 -1.52423,2.86101 -3.09951,5.51755 -4.4357,7.75829 -3.208219,-2.6794 -5.795483,-5.44434 -7.883132,-8.20551 -1.589067,-2.10175 -2.807683,-4.10546 -3.752116,-5.92147 -3.131352,-6.02111 -3.934483,-11.33853 -4.207745,-14.08784 -0.369132,-3.71387 -0.0976,-6.5715 -0.0054,-7.4847 0.114152,-1.13028 0.272281,-2.10368 0.345071,-2.55853 0.08109,-0.5067 0.219914,-1.36734 0.380383,-2.17533 0.177424,-0.89339 0.548658,-2.24703 0.516115,-2.14683 a 2.1027218,2.1027218 0 0 0 -2.034962,-2.74955 z m 32.993095,0.28965 a 1.8124468,1.8124468 0 0 0 -1.44524,3.00967 c 2.66812,3.02307 4.08715,5.98682 4.89818,8.44128 0.81703,2.47261 1.12846,4.78125 1.23993,6.63887 0.25363,4.22644 -0.45143,8.17854 -0.78654,9.97531 -0.35909,1.92538 -0.99992,4.96973 -2.09709,8.56193 -0.68011,2.22673 -1.73312,5.33625 -3.43535,9.3896 -1.7538,4.17613 -4.20953,9.40254 -8.04181,16.49561 -3.20614,5.93414 -6.73425,11.94316 -10.268973,17.96777 3.848703,-5.8214 7.673353,-11.66168 11.239523,-17.40489 4.26917,-6.87538 7.09587,-11.96664 9.18235,-16.08061 2.02504,-3.99284 3.35881,-7.09002 4.24827,-9.34299 1.50093,-3.80183 2.29928,-6.61587 2.78261,-8.85934 0.42218,-1.9596 1.18265,-6.13797 0.85985,-10.93751 -0.25253,-3.75463 -1.28156,-10.64764 -7.10315,-17.24368 a 1.8124468,1.8124468 0 0 0 -1.27256,-0.61102 z"
       id="path3941"
       inkscape:connector-curvature="0" />
    <path
       inkscape:export-ydpi="149"
       inkscape:export-xdpi="149"
       inkscape:export-filename="d:\PULPIT\logo_fin.png"
       style="fill:#ffffff;fill-opacity:1;fill-rule:nonzero;stroke:none;stroke-width:1.00157475;stroke-linecap:butt;stroke-linejoin:miter;stroke-miterlimit:4;stroke-dasharray:none;stroke-opacity:1;filter:url(#filter4985)"
       d="m 1040.8574,313.50391 c -82.71052,14.86966 -144.21071,35.07543 -191.72459,58.33007 -24.97869,12.22528 -50.74041,27.55559 -75.47851,47.16016 -12.71206,-4.37186 -24.73202,-8.32372 -24.53125,-8.25781 -1.53744,-0.50468 -48.33681,-16.94995 -103.67578,-22.75977 -17.78423,-1.44468 -34.94738,-1.6193 -51.5293,-0.6875 -51.757,2.90839 -97.35438,16.544 -139.13672,35.5918 -0.5204,0.23724 -1.04008,0.47245 -1.56055,0.70898 -18.64024,-15.42369 -36.51633,-27.26454 -57.30468,-38.67187 -19.71069,-10.81596 -54.26442,-27.87707 -107.41211,-48.08203 47.60923,28.8829 78.67379,54.25131 94.42578,67.27734 13.83791,11.4432 38.00263,32.12019 51.40234,44.12695 19.89763,17.82917 56.51781,51.39432 89.3125,103.50391 1.38637,2.2029 2.77639,4.45235 4.16797,6.75 24.51152,40.47024 46.54878,80.94063 64.68359,126.41016 13.078,32.79061 24.00228,67.52142 37.86329,103.24804 a 8.4745954,8.4745954 0 0 0 0.1914,0.42969 8.3233054,8.3233054 0 0 0 16.20313,-2.74414 c -0.55363,-48.30939 2.63075,-93.28768 12.65625,-134.45898 2.49482,-10.24532 5.39457,-20.22906 8.66601,-29.95118 16.43055,-48.82824 41.95918,-90.43713 73.17774,-127.74609 2.32036,-2.77304 4.67709,-5.5295 7.06836,-8.26758 34.36637,-39.35021 74.63668,-69.86272 112.10937,-93.08984 42.40811,-26.28632 100.29265,-55.13811 180.42576,-78.82031 z M 606.75,408.80664 c 11.96487,-0.0458 24.25384,0.42019 36.9043,1.42969 52.17037,2.86265 99.66777,16.36608 100.68359,16.63476 3.6235,0.9584 8.26773,2.20872 14.79492,4.25196 -11.70553,10.29488 -23.09165,21.63393 -33.95117,34.1582 -2.58625,2.98269 -5.10582,6.00747 -7.56055,9.07422 -33.37821,41.69987 -54.01484,89.9545 -67.30468,141.83203 -2.65455,10.36214 -5.02514,20.89799 -7.16016,31.59961 -5.98255,29.98753 -10.24995,61.51453 -12.08398,94.67187 -8.00344,-21.40992 -15.56579,-42.43551 -22.67188,-63.4121 -15.61013,-46.08004 -28.94535,-92.79807 -54.58789,-136.11524 -1.45485,-2.45767 -2.9083,-4.86657 -4.35938,-7.22852 -18.12706,-29.50575 -36.32957,-52.30997 -52.11132,-69.74414 -10.63408,-11.7475 -20.85178,-21.78436 -30.16211,-30.24414 39.16238,-15.749 81.22805,-25.17417 127.71289,-26.69336 3.91749,-0.12803 7.86913,-0.19957 11.85742,-0.21484 z m -232.74609,160.0293 c 18.26334,26.42037 31.98981,46.53735 56.3164,59.56054 8.9113,4.77064 20.47656,9.16869 34.99414,11.07032 2.79224,0.36586 5.63311,0.56349 8.51367,0.60937 16.4154,0.26155 33.45904,-4.36477 52.17579,-10.74023 -19.96619,1.5301 -36.32031,-1.79627 -50.15625,-5.31641 -2.44978,-0.62324 -4.85832,-1.25973 -7.20118,-1.88086 -11.84643,-3.14063 -21.83029,-7.58149 -29.29882,-11.25976 -10.23425,-5.04038 -21.48441,-11.56926 -30.71485,-17.40625 -10.58109,-6.69113 -20.68171,-13.77451 -34.6289,-24.63672 z m 548.60351,11.79687 c -15.84703,12.4131 -33.54447,19.14388 -49.69726,25.66602 -18.00979,7.27192 -35.61887,11.0031 -48.25391,13.1914 -15.03489,2.60395 -31.19849,4.36101 -44.63086,5.20899 -14.20996,0.89705 -30.58457,1.13769 -48.05273,-0.62305 16.34425,6.11026 32.95789,10.12979 47.60546,12.13867 14.68585,2.01411 30.57425,2.49553 47.72461,0.0274 14.16439,-2.03996 32.50592,-6.5953 51.78907,-16.52344 17.3814,-8.94898 31.19485,-23.24775 43.51562,-39.08594 z m -190.63476,43.44336 c -0.003,-9.4e-4 -0.005,-0.001 -0.008,-0.002 v 0.002 c 0.003,2.6e-4 0.005,-2.6e-4 0.008,0 z m -325.84961,84.6211 a 27.564038,27.564038 0 0 0 -25.75586,19.01562 c -0.4266,1.31342 -5.86511,21.22854 -8.46094,34.50977 -2.53777,12.98411 -4.01026,23.63309 -4.90625,32.05664 -0.8002,7.523 -1.85179,20.11094 -2.38867,37.3164 -0.39379,12.61977 -1.64781,55.06172 5.79687,107.09375 5.58853,39.05904 19.95198,114.22965 66.46485,197.82615 14.02647,25.2095 31.85625,52.8249 54.72851,81.5957 33.4009,42.0147 75.18384,83.2148 127.02539,122.2969 5.27263,3.9749 10.59145,7.8847 15.95899,11.7305 2.75146,-5.6126 5.53262,-11.2111 8.34179,-16.7949 18.87481,-37.5176 43.89277,-84.547 62.76758,-122.0645 11.85245,-23.4901 23.82408,-47.8533 35.14063,-72.2324 10.78303,-23.2298 21.15454,-46.5583 30.16992,-69.3281 9.2321,-23.3174 17.17952,-46.3909 22.69336,-68.4649 5.49713,-22.00724 8.75941,-43.73409 8.14648,-64.16992 -0.61417,-20.47812 -5.16023,-40.53996 -16.04882,-58.05664 -7.39446,-11.89561 -17.40466,-22.08156 -30.03516,-30.00976 -5.98239,-3.75515 -12.44016,-6.98324 -19.34766,-9.69531 -40.69122,-15.97176 -81.47237,-14.08956 -116.9082,-1.14063 -35.19742,12.86181 -65.17522,36.60203 -85.78906,64.80664 -20.58116,28.1599 -32.63487,61.92722 -30.0586,95.13082 1.29434,16.6817 6.28294,32.972 15.48828,47.9102 9.19631,14.9235 22.32454,28.0529 39.38086,38.8809 16.73806,10.6179 32.81018,16.6898 48.06836,18.5 15.37214,1.8236 29.32658,-0.755 41.54492,-6.584 12.10122,-5.7732 22.08756,-14.5269 30.15235,-24.5996 7.41917,-9.2664 13.38412,-19.8585 18.02148,-30.8379 0.40687,-0.9633 0.80324,-1.927 1.1875,-2.8907 10.57357,-26.5185 13.07454,-53.3766 11.20117,-72.44527 -1.14939,-11.69952 -3.97727,-21.66263 -8.33593,-29.31054 -2.45711,-4.31135 -5.45891,-7.99152 -9.02735,-10.84571 -3.93082,-3.14411 -8.34747,-5.1225 -13.04296,-5.93945 -0.0838,-0.014 -0.16797,-0.0289 -0.25196,-0.043 -17.19524,-2.45599 -32.2604,0.60386 -40.89844,3.04492 -10.95409,3.09559 -18.80231,7.20685 -22.89062,9.60352 -4.45134,2.60942 -7.75183,5.11039 -10.34961,7.57227 -2.68139,2.54112 -6.82425,7.16191 -9.63281,13.66992 -1.59965,3.70673 -3.16653,8.99857 -2.61914,15.02929 0.38585,4.25084 1.83692,9.00524 5.31836,13.79493 2.70353,3.71943 6.73688,7.61288 12.83398,11.45507 -5.15195,-5.08376 -7.77219,-9.71706 -9.04687,-13.4707 -1.61579,-4.75812 -1.2447,-8.58836 -0.49805,-11.30078 1.07112,-3.89106 3.3177,-6.90345 5.10156,-8.89844 3.04074,-3.40063 7.04723,-6.27553 9.10352,-7.75 1.94702,-1.39612 4.95715,-3.51061 8.28711,-5.40234 3.27337,-1.85957 9.6521,-5.14355 18.87109,-7.39063 7.38426,-1.79985 19.60959,-3.62093 32.97266,-0.88476 1.38844,0.36019 2.67091,1.06493 3.91796,2.24414 1.17986,1.11564 2.4728,2.80066 3.69922,5.3125 2.22777,4.56272 4.06853,11.54375 4.54883,21.19141 0.78263,15.7206 -2.26922,38.76095 -12.32031,61.02155 -0.3583,0.7936 -0.72415,1.5849 -1.09961,2.373 -4.31361,9.0541 -9.5443,17.1925 -15.53516,23.8496 -6.51877,7.2436 -13.711,12.4875 -21.37304,15.4922 -7.53876,2.9564 -15.90967,3.9048 -25.38086,2.1406 -9.5794,-1.7844 -20.88432,-6.4635 -33.97657,-15.6484 -12.78701,-8.9811 -21.37352,-18.9566 -26.82031,-29.0996 -5.43579,-10.1226 -7.98714,-20.8556 -8.16992,-31.79302 -0.36813,-22.02516 8.92115,-45.94953 25.83594,-67.05664 16.88851,-21.0743 40.53082,-38.23693 66.99023,-47.09765 26.20146,-8.77433 55.07322,-9.43031 83.88867,2.02929 4.32454,1.72097 8.10612,3.65163 11.41797,5.73438 6.81789,4.28753 12.17789,9.32917 16.4336,15.13672 6.3888,8.71853 11.08757,20.29739 13.35937,35.625 2.27463,15.34654 1.95898,33.48735 -0.92578,53.97265 -2.87202,20.39517 -8.20181,42.49157 -15.51758,65.50197 -7.12463,22.4093 -16.06767,45.4775 -26.2832,68.4219 -10.70857,24.0517 -22.63786,47.924 -34.86523,70.875 -19.9807,37.5042 -40.63061,72.3282 -58.14649,101.7012 -42.05563,-35.1241 -75.97143,-71.3689 -103.33789,-107.5645 -20.83068,-27.5512 -36.80713,-53.8176 -49.1875,-77.623 -41.04805,-78.929 -51.57409,-148.63582 -55.15625,-184.67585 -4.83885,-48.68436 -1.28141,-86.14234 -0.0723,-98.11328 1.49639,-14.81639 3.57122,-27.5764 4.5254,-33.53906 1.06291,-6.64207 2.88279,-17.9238 4.98632,-28.51563 2.32581,-11.7112 7.19222,-29.456 6.76563,-28.14258 a 27.564038,27.564038 0 0 0 -26.67578,-36.04296 z m 432.49414,3.80468 a 23.758897,23.758897 0 0 0 -18.94141,39.44532 c 34.97567,39.62853 53.57541,78.47936 64.20703,110.65429 10.71024,32.41293 14.79455,62.67638 16.25586,87.02735 3.32478,55.40329 -5.91775,107.21039 -10.31055,130.76369 -4.70721,25.2392 -13.10773,65.1471 -27.49023,112.2363 -8.91538,29.1894 -22.71895,69.9515 -45.0332,123.0859 -22.99004,54.7437 -55.18159,123.2552 -105.41797,216.2364 -42.02846,77.7892 -88.27756,156.5599 -134.61328,235.5351 50.45163,-76.3115 100.58802,-152.87 147.33594,-228.1562 55.96357,-90.1278 93.01802,-156.8678 120.36914,-210.7969 26.5457,-52.3411 44.02983,-92.9431 55.68945,-122.4766 19.67539,-49.8371 30.14067,-86.7238 36.47656,-116.1328 5.53417,-25.6877 15.50312,-80.4611 11.27149,-143.37692 -3.31038,-49.21883 -16.79964,-139.57725 -93.11329,-226.04297 a 23.758897,23.758897 0 0 0 -16.68554,-8.00196 z"
       transform="matrix(0.07628497,0,0,0.07628497,53.238305,73.616929)"
       id="path3943"
       inkscape:connector-curvature="0" />
  </g>
</svg>
